HIERARCHY
ROOT Hips
{
	OFFSET 0.00000 0.00000 0.00000
	CHANNELS 6 Xposition Yposition Zposition Zrotation Yrotation Xrotation 
	JOINT LHipJoint
	{
		OFFSET 0 0 0
		CHANNELS 3 Zrotation Yrotation Xrotation
		JOINT LeftUpLeg
		{
			OFFSET 1.48416 -1.82041 0.59464
			CHANNELS 3 Zrotation Yrotation Xrotation
			JOINT LeftLeg
			{
				OFFSET 2.43280 -6.68407 0.00000
				CHANNELS 3 Zrotation Yrotation Xrotation
				JOINT LeftFoot
				{
					OFFSET 2.68325 -7.37216 0.00000
					CHANNELS 3 Zrotation Yrotation Xrotation
					JOINT LeftToeBase
					{
						OFFSET 0.15365 -0.42214 1.91990
						CHANNELS 3 Zrotation Yrotation Xrotation
						End Site
						{
							OFFSET 0.00000 -0.00000 0.99320
						}
					}
				}
			}
		}
	}
	JOINT RHipJoint
	{
		OFFSET 0 0 0
		CHANNELS 3 Zrotation Yrotation Xrotation
		JOINT RightUpLeg
		{
			OFFSET -1.70852 -1.82040 0.59464
			CHANNELS 3 Zrotation Yrotation Xrotation
			JOINT RightLeg
			{
				OFFSET -2.50396 -6.87957 0.00000
				CHANNELS 3 Zrotation Yrotation Xrotation
				JOINT RightFoot
				{
					OFFSET -2.67204 -7.34139 0.00000
					CHANNELS 3 Zrotation Yrotation Xrotation
					JOINT RightToeBase
					{
						OFFSET -0.17346 -0.47657 2.02009
						CHANNELS 3 Zrotation Yrotation Xrotation
						End Site
						{
							OFFSET -0.00000 -0.00000 1.04609
						}
					}
				}
			}
		}
	}
	JOINT LowerBack
	{
		OFFSET 0 0 0
		CHANNELS 3 Zrotation Yrotation Xrotation
		JOINT Spine
		{
			OFFSET -0.01022 1.99636 -0.30653
			CHANNELS 3 Zrotation Yrotation Xrotation
			JOINT Spine1
			{
				OFFSET -0.01683 2.01212 0.04808
				CHANNELS 3 Zrotation Yrotation Xrotation
				JOINT Neck
				{
					OFFSET 0 0 0
					CHANNELS 3 Zrotation Yrotation Xrotation
					JOINT Neck1
					{
						OFFSET -0.03080 1.91178 0.03911
						CHANNELS 3 Zrotation Yrotation Xrotation
						JOINT Head
						{
							OFFSET 0.10605 1.89839 -0.23433
							CHANNELS 3 Zrotation Yrotation Xrotation
							End Site
							{
								OFFSET 0.03474 1.92469 -0.08609
							}
						}
					}
				}
				JOINT LeftShoulder
				{
					OFFSET 0 0 0
					CHANNELS 3 Zrotation Yrotation Xrotation
					JOINT LeftArm
					{
						OFFSET 3.78977 1.27972 -0.24661
						CHANNELS 3 Zrotation Yrotation Xrotation
						JOINT LeftForeArm
						{
							OFFSET 5.64147 -0.00000 -0.00000
							CHANNELS 3 Zrotation Yrotation Xrotation
							JOINT LeftHand
							{
								OFFSET 2.86444 -0.00000 -0.00000
								CHANNELS 3 Zrotation Yrotation Xrotation
								JOINT LeftFingerBase
								{
									OFFSET 0 0 0
									CHANNELS 3 Zrotation Yrotation Xrotation
									JOINT LeftHandIndex1
									{
										OFFSET 0.72212 -0.00000 -0.00000
										CHANNELS 3 Zrotation Yrotation Xrotation
										End Site
										{
											OFFSET 0.58219 -0.00000 -0.00000
										}
									}
								}
								JOINT LThumb
								{
									OFFSET 0 0 0
									CHANNELS 3 Zrotation Yrotation Xrotation
									End Site
									{
										OFFSET 0.59108 -0.00000 0.59108
									}
								}
							}
						}
					}
				}
				JOINT RightShoulder
				{
					OFFSET 0 0 0
					CHANNELS 3 Zrotation Yrotation Xrotation
					JOINT RightArm
					{
						OFFSET -3.41176 1.18605 -0.57927
						CHANNELS 3 Zrotation Yrotation Xrotation
						JOINT RightForeArm
						{
							OFFSET -5.44729 -0.00000 -0.00000
							CHANNELS 3 Zrotation Yrotation Xrotation
							JOINT RightHand
							{
								OFFSET -3.08821 -0.00000 -0.00000
								CHANNELS 3 Zrotation Yrotation Xrotation
								JOINT RightFingerBase
								{
									OFFSET 0 0 0
									CHANNELS 3 Zrotation Yrotation Xrotation
									JOINT RightHandIndex1
									{
										OFFSET -0.82105 -0.00000 -0.00000
										CHANNELS 3 Zrotation Yrotation Xrotation
										End Site
										{
											OFFSET -0.66195 -0.00000 -0.00000
										}
									}
								}
								JOINT RThumb
								{
									OFFSET 0 0 0
									CHANNELS 3 Zrotation Yrotation Xrotation
									End Site
									{
										OFFSET -0.67206 -0.00000 0.67206
									}
								}
							}
						}
					}
				}
			}
		}
	}
}
MOTION
Frames: 10
Frame Time: .0083333
2.8856 18.1421 -0.2447 -29.6080 78.2783 -26.5291 0.0000 0.0000 0.0000 -14.2614 7.7528 0.8729 0.0683 1.6860 4.6386 0.5759 1.8594 -15.1288 0.3718 -3.9167 -10.8423 0.0000 0.0000 0.0000 23.9107 -0.4493 -7.7533 -0.6684 -5.2284 14.5611 0.0490 4.1585 0.0428 -0.5320 4.6738 -12.9806 2.9518 -0.1521 2.6015 5.4323 -0.0272 1.9991 3.9443 0.0393 0.5962 0.2304 5.7025 14.4707 16.5476 7.3248 14.7636 4.7904 4.2097 1.3710 0.0000 -0.0000 0.0000 -92.1747 -23.3028 71.8753 146.5497 -43.6733 -106.2680 -0.0000 0.0000 -29.3632 17.5292 24.7045 7.5201 -7.1250 0.0000 -0.0000 -12.8425 55.2721 -3.2783 0.0000 -0.0000 0.0000 35.9802 74.7682 -3.6384 -116.8514 57.0922 -83.0270 0.0000 -0.0000 -28.3414 38.7418 -5.3224 -4.2565 7.1250 -0.0000 -0.0000 45.2617 -29.2913 25.8329
2.8853 18.1417 -0.2420 -29.3702 78.2515 -26.3644 0.0000 0.0000 0.0000 -14.2714 7.8215 0.9697 0.0675 1.6766 4.6128 0.5806 1.8144 -15.1644 0.3437 -3.7672 -10.4226 0.0000 0.0000 0.0000 23.8968 -0.5854 -7.7366 -0.6695 -5.2327 14.5733 0.0523 4.2677 0.1304 -0.5504 4.7528 -13.2048 2.7515 -0.1712 2.6713 5.5060 -0.0512 2.0058 4.1352 0.0252 0.5655 0.2044 5.6514 14.5032 16.5205 7.2432 14.9076 4.7945 4.1770 1.4163 0.0000 -0.0000 0.0000 -92.3867 -23.2836 71.9025 146.4636 -43.7383 -106.2085 -0.0000 0.0000 -29.4026 17.2684 24.8948 7.4552 -7.1250 0.0000 -0.0000 -13.2027 55.4093 -3.4169 0.0000 -0.0000 0.0000 37.4346 74.4658 -1.3000 -115.7875 57.3318 -82.1325 0.0000 -0.0000 -27.8377 38.7345 -5.2122 -4.1678 7.1250 -0.0000 -0.0000 45.2057 -29.1915 25.9486
2.8838 18.1418 -0.2381 -28.7905 78.2482 -25.8036 0.0000 0.0000 0.0000 -14.3823 7.8650 0.9485 0.0684 1.6879 4.6439 0.5807 1.8537 -15.1852 0.3572 -3.8396 -10.6260 0.0000 0.0000 0.0000 23.8018 -0.6723 -7.7615 -0.6679 -5.2265 14.5558 0.0545 4.3455 0.1751 -0.5641 4.8106 -13.3693 2.5268 -0.1742 2.6535 5.5190 -0.0628 2.0174 4.2760 0.0164 0.5885 0.1242 5.6540 14.4475 16.5579 7.2201 15.0210 4.8251 4.1718 1.4547 -0.0000 0.0000 0.0000 -92.5345 -23.3130 71.9750 146.3878 -43.7953 -106.1561 -0.0000 0.0000 -29.5412 17.3023 24.9451 7.4846 -7.1250 0.0000 -0.0000 -13.1929 55.4659 -3.4326 -0.0000 0.0000 0.0000 39.1425 74.0476 1.1726 -114.8799 57.5267 -81.3677 0.0000 -0.0000 -27.4200 39.0013 -5.1028 -4.1198 7.1250 -0.0000 -0.0000 45.2210 -28.9926 26.3418
2.8822 18.1399 -0.2335 -28.5179 78.2403 -25.5449 0.0000 0.0000 0.0000 -14.4325 7.8772 0.9097 0.0705 1.7131 4.7134 0.5820 1.8902 -15.2185 0.3742 -3.9288 -10.8763 0.0000 0.0000 0.0000 23.7755 -0.7312 -7.7608 -0.6653 -5.2162 14.5262 0.0562 4.4087 0.1890 -0.5739 4.8512 -13.4847 2.4285 -0.1727 2.6207 5.4942 -0.0667 2.0211 4.3057 0.0128 0.6110 -0.0352 5.6669 14.3656 16.7270 7.1991 15.0876 4.9079 4.1641 1.4712 0.0000 -0.0000 0.0000 -92.5784 -23.2833 72.0930 146.3389 -43.8321 -106.1222 -0.0000 0.0000 -29.6205 17.6298 24.9893 7.6463 -7.1250 0.0000 -0.0000 -12.8788 55.5751 -3.3832 0.0000 -0.0000 0.0000 41.1279 73.4503 3.7460 -114.2271 57.6617 -80.8166 0.0000 -0.0000 -26.9972 39.6915 -4.9781 -4.1194 7.1250 -0.0000 -0.0000 45.3268 -28.6134 27.2016
2.8795 18.1369 -0.2284 -29.1642 78.1180 -26.1745 0.0000 0.0000 0.0000 -14.2338 7.8971 0.8265 0.0741 1.7564 4.8328 0.5893 1.8416 -15.2835 0.3697 -3.9053 -10.8103 0.0000 0.0000 0.0000 24.0014 -0.6943 -7.7483 -0.6619 -5.2034 14.4897 0.0554 4.3972 0.1274 -0.5775 4.8663 -13.5276 2.5918 -0.1462 2.6302 5.4908 -0.0255 1.9999 4.2088 0.0356 0.5813 -0.1807 5.6895 14.2428 16.8809 7.2003 15.0465 4.9802 4.1616 1.4612 -0.0000 0.0000 0.0000 -92.5518 -23.2279 72.2082 146.3341 -43.8357 -106.1188 -0.0000 0.0000 -29.6960 17.5476 25.0130 7.6154 -7.1250 0.0000 -0.0000 -12.9750 55.5823 -3.4114 -0.0000 0.0000 0.0000 43.0555 72.6502 6.1801 -113.7892 57.7498 -80.4464 0.0000 -0.0000 -26.3856 40.6226 -4.7562 -4.0683 7.1250 -0.0000 -0.0000 45.4178 -28.0222 28.4673
2.8769 18.1357 -0.2232 -29.0227 78.0747 -26.0360 0.0000 0.0000 0.0000 -14.2391 7.9101 0.7252 0.0789 1.8118 4.9859 0.5956 1.8399 -15.3600 0.3866 -3.9927 -11.0562 0.0000 0.0000 0.0000 24.0218 -0.6701 -7.7224 -0.6575 -5.1864 14.4409 0.0550 4.3836 0.1148 -0.5534 4.7652 -13.2401 2.5417 -0.1107 2.6552 5.4539 0.0213 1.9901 4.1974 0.0581 0.5545 -0.1704 5.7880 14.2403 16.7566 7.3641 14.6973 4.9203 4.2138 1.3510 -0.0000 -0.0000 0.0000 -92.5911 -23.2121 72.2968 146.3715 -43.8076 -106.1448 -0.0000 0.0000 -29.8280 17.3841 25.1669 7.5836 -7.1250 0.0000 -0.0000 -13.2197 55.7020 -3.5160 -0.0000 -0.0000 0.0000 44.6818 71.7890 8.3793 -113.4849 57.8098 -80.1889 0.0000 -0.0000 -25.7466 41.1287 -4.5415 -3.9553 7.1250 -0.0000 -0.0000 45.4092 -27.5949 29.2861
2.8760 18.1337 -0.2188 -28.6947 78.0820 -25.6746 0.0000 0.0000 0.0000 -14.3312 7.8688 0.5435 0.0874 1.9068 5.2482 0.6064 1.7928 -15.4675 0.4059 -4.0902 -11.3306 0.0000 0.0000 0.0000 23.9688 -0.7871 -7.7504 -0.6492 -5.1543 14.3491 0.0577 4.4580 0.2178 -0.5502 4.7518 -13.2020 2.4503 -0.0745 2.6332 5.3903 0.0645 1.9697 4.1814 0.0778 0.5434 -0.1944 5.9042 14.1425 16.6960 7.5368 14.3722 4.8881 4.2751 1.2566 -0.0000 -0.0000 0.0000 -92.6080 -23.2051 72.3933 146.4003 -43.7859 -106.1647 -0.0000 0.0000 -29.8984 17.3283 25.2476 7.5804 -7.1250 0.0000 -0.0000 -13.3177 55.7707 -3.5651 -0.0000 -0.0000 0.0000 46.3709 70.9103 10.4281 -113.3121 57.8435 -80.0427 0.0000 -0.0000 -25.4043 41.3903 -4.4590 -3.9197 7.1250 -0.0000 -0.0000 45.4151 -27.3963 29.6836
2.8753 18.1318 -0.2142 -28.6736 78.0571 -25.6322 0.0000 0.0000 0.0000 -14.3203 7.8584 0.4526 0.0921 1.9576 5.3884 0.6142 1.7141 -15.5227 0.4063 -4.0919 -11.3354 0.0000 0.0000 0.0000 23.9877 -0.8639 -7.7725 -0.6448 -5.1368 14.2992 0.0607 4.5465 0.3096 -0.5374 4.6971 -13.0466 2.4868 -0.0267 2.6662 5.3039 0.1302 1.9278 4.0686 0.1104 0.4782 -0.2255 5.9567 14.1391 16.6060 7.6448 13.8886 4.8443 4.2902 1.1072 -0.0000 -0.0000 0.0000 -92.5707 -23.1762 72.5009 146.3965 -43.7888 -106.1620 -0.0000 0.0000 -29.8840 17.2909 25.1997 7.5500 -7.1250 0.0000 -0.0000 -13.3318 55.7157 -3.5511 -0.0000 -0.0000 0.0000 48.2979 69.9863 12.3385 -113.1531 57.8743 -79.9080 0.0000 -0.0000 -25.4371 41.6496 -4.1880 -3.7162 7.1250 -0.0000 -0.0000 45.3285 -27.0123 30.2996
2.8728 18.1290 -0.2087 -28.8721 77.9923 -25.7806 0.0000 0.0000 0.0000 -14.2382 7.8594 0.3390 0.0957 1.9946 5.4906 0.6198 1.6355 -15.5526 0.4008 -4.0648 -11.2589 0.0000 0.0000 0.0000 24.0852 -0.8538 -7.8016 -0.6414 -5.1235 14.2612 0.0610 4.5500 0.3350 -0.5070 4.5643 -12.6699 2.6435 0.0132 2.6353 5.1846 0.1817 1.9312 3.8544 0.1371 0.4969 -0.2326 6.0063 14.1678 16.4277 7.7687 13.2393 4.7632 4.2999 0.9088 -0.0000 -0.0000 0.0000 -92.4235 -23.2506 72.4726 146.4051 -43.7823 -106.1680 -0.0000 0.0000 -29.9681 17.2090 25.1483 7.4982 -7.1250 0.0000 -0.0000 -13.3902 55.6485 -3.5450 -0.0000 -0.0000 0.0000 50.2003 69.2497 13.9043 -113.1318 57.8784 -79.8901 0.0000 -0.0000 -25.6451 42.0238 -3.9189 -3.5244 7.1250 -0.0000 -0.0000 45.2590 -26.5686 31.0568
2.8703 18.1268 -0.2041 -28.8212 77.9955 -25.6900 0.0000 0.0000 0.0000 -14.2511 7.8127 0.2066 0.1013 2.0521 5.6498 0.6300 1.5512 -15.6333 0.3912 -4.0164 -11.1228 0.0000 0.0000 0.0000 24.1032 -0.9070 -7.8285 -0.6348 -5.0978 14.1878 0.0610 4.5276 0.4095 -0.4770 4.4290 -12.2869 2.7715 0.0512 2.5276 5.0314 0.2213 1.9845 3.6221 0.1575 0.6111 -0.3265 6.1480 13.9454 16.4368 7.9600 12.8951 4.7654 4.3719 0.8192 -0.0000 0.0000 0.0000 -92.2816 -23.4066 72.4766 146.3994 -43.7867 -106.1640 -0.0000 0.0000 -30.0255 17.2855 25.0429 7.5041 -7.1250 0.0000 -0.0000 -13.2587 55.5594 -3.4804 -0.0000 0.0000 0.0000 51.5382 68.6309 14.7427 -113.3668 57.8329 -80.0890 0.0000 -0.0000 -25.6737 42.3507 -3.8061 -3.4626 7.1250 -0.0000 -0.0000 45.2521 -26.2933 31.5866
